<svg width="150" height="48" viewBox="0 0 150 48" fill="none" xmlns="http://www.w3.org/2000/svg">
<path d="M72.0367 26.9423H67.041V22.2293H65.4229V33.0535H67.041V28.4033H72.0367V33.0535H73.6549V22.2293H72.0367V26.9423ZM83.0846 29.3459C83.0846 27.0366 81.4979 25.5284 79.4085 25.5284C77.3191 25.5284 75.6224 27.0366 75.6224 29.3616C75.6224 31.6867 77.2877 33.242 79.4085 33.242C80.8067 33.242 82.1263 32.5822 82.7704 31.3568L81.545 30.7441C81.1366 31.4196 80.3354 31.8124 79.4713 31.8124C78.2931 31.8124 77.4133 31.1997 77.2091 30.0057H83.0532C83.0689 29.7701 83.0846 29.5502 83.0846 29.3459ZM77.2248 28.7647C77.4448 27.5393 78.2931 26.958 79.4242 26.958C80.5553 26.958 81.3879 27.6178 81.545 28.7647H77.2248ZM86.4237 33.0535V21.7266H84.8841V33.0535H86.4237ZM92.8195 25.5284C91.8298 25.5284 90.7615 25.984 90.2745 26.8166V25.7169H88.7349V36.6196H90.2745V31.9695C90.7615 32.8021 91.7826 33.242 92.8195 33.242C94.8147 33.242 96.4642 31.7338 96.4642 29.3931C96.4642 27.068 94.7989 25.5284 92.8195 25.5284ZM92.631 31.7967C91.4999 31.7967 90.2902 30.8855 90.2902 29.4088C90.2902 27.932 91.4056 26.9737 92.631 26.9737C93.9035 26.9737 94.9089 28.0263 94.9089 29.4088C94.9089 30.7912 93.9035 31.7967 92.631 31.7967ZM107.295 33.242C109.007 33.242 110.5 32.4879 111.458 31.294L110.264 30.3356C109.573 31.184 108.505 31.7338 107.311 31.7338C105.096 31.7338 103.415 29.8801 103.415 27.665C103.415 25.4342 105.111 23.549 107.311 23.549C108.505 23.549 109.573 24.0988 110.264 24.9471L111.458 23.9888C110.5 22.7949 109.007 22.0408 107.295 22.0408C104.232 22.0408 101.796 24.6015 101.796 27.665C101.796 30.7284 104.232 33.242 107.295 33.242ZM120.012 29.3459C120.012 27.0366 118.425 25.5284 116.336 25.5284C114.247 25.5284 112.55 27.0366 112.55 29.3616C112.55 31.6867 114.215 33.242 116.336 33.242C117.734 33.242 119.054 32.5822 119.698 31.3568L118.473 30.7441C118.064 31.4196 117.263 31.8124 116.399 31.8124C115.221 31.8124 114.341 31.1997 114.137 30.0057H119.981C119.996 29.7701 120.012 29.5502 120.012 29.3459ZM114.152 28.7647C114.372 27.5393 115.221 26.958 116.352 26.958C117.483 26.958 118.315 27.6178 118.473 28.7647H114.152ZM125.739 25.5284C124.954 25.5284 123.775 25.9369 123.351 26.848V25.7169H121.812V33.0535H123.351V29.1103C123.351 27.5864 124.514 27.0366 125.472 27.0366C126.415 27.0366 127.137 27.7592 127.137 28.9532V33.0535H128.677V28.8589C128.693 26.7695 127.593 25.5284 125.739 25.5284ZM132.939 25.7169V22.9677H131.399V25.7169H130.08V27.0051H131.399V33.0535H132.939V27.0051H134.51V25.7169H132.939ZM142.825 29.3459C142.825 27.0366 141.239 25.5284 139.149 25.5284C137.06 25.5284 135.363 27.0366 135.363 29.3616C135.363 31.6867 137.028 33.242 139.149 33.242C140.547 33.242 141.867 32.5822 142.511 31.3568L141.286 30.7441C140.877 31.4196 140.076 31.8124 139.212 31.8124C138.034 31.8124 137.154 31.1997 136.95 30.0057H142.794C142.81 29.7701 142.825 29.5502 142.825 29.3459ZM136.965 28.7647C137.185 27.5393 138.034 26.958 139.165 26.958C140.296 26.958 141.129 27.6178 141.286 28.7647H136.965ZM148.238 25.5284C147.295 25.5284 146.557 26.0783 146.18 27.3665V25.7169H144.625V33.0535H146.18V30.4142C146.18 28.4347 146.808 27.0051 148.144 27.0051C148.442 27.0051 148.819 27.068 149.228 27.2565L149.495 25.7955C149.259 25.6541 148.741 25.5284 148.238 25.5284Z" fill="black"/>
<circle cx="23.5649" cy="24.0305" r="23.5649" fill="#F6F6F6"/>
<path d="M30.562 26.7443C30.7093 26.4334 30.8373 26.1166 30.9468 25.7947H30.9187C32.8369 20.1564 28.8029 14.2305 22.8475 13.9419C22.8474 13.9416 22.8473 13.9413 22.8472 13.941C17.723 13.7046 13.4657 17.8131 13.4657 22.9077C13.4657 27.8534 17.4796 31.8771 22.4167 31.8843C23.7558 31.8825 25.0394 31.5938 26.2363 31.0253C30.9083 31.9502 30.544 31.8845 30.6513 31.8845C31.1368 31.8845 31.4995 31.4389 31.4047 30.9642L30.562 26.7443Z" fill="black"/>
</svg>
